<svg preserveAspectRatio="none" width="100%" height="100%" overflow="visible" style="display: block;" viewBox="0 0 152.331 90.6184" fill="none" xmlns="http://www.w3.org/2000/svg">
<g id="Group">
<path id="Vector" fill-rule="evenodd" clip-rule="evenodd" d="M109.833 86.209C123.434 86.537 137.333 85.8811 150.337 90.5319C151.112 90.8062 151.965 90.4067 152.245 89.6316C152.519 88.8564 152.12 88.0038 151.345 87.7236C138.036 82.9654 123.821 83.5616 109.905 83.2277C109.082 83.2039 108.396 83.8598 108.378 84.6826C108.354 85.5055 109.01 86.1852 109.833 86.209Z" fill="var(--fill-0, #EF2752)"/>
<path id="Vector_2" fill-rule="evenodd" clip-rule="evenodd" d="M108.611 66.4627C112.85 62.5619 117.477 59.6397 123.07 58.1914C123.869 57.9851 124.346 57.1711 124.143 56.3745C123.934 55.5779 123.118 55.0992 122.325 55.3055C116.243 56.8796 111.204 60.029 106.595 64.2679C105.987 64.8248 105.945 65.7687 106.506 66.3745C107.06 66.9797 108.008 67.0196 108.611 66.4627Z" fill="var(--fill-0, #EF2752)"/>
<g id="Group_2">
<path id="Vector_3" fill-rule="evenodd" clip-rule="evenodd" d="M96.8174 23.8758C98.7612 17.2126 102.589 12.0001 108.456 8.23596C109.148 7.79175 109.351 6.86875 108.904 6.17649C108.462 5.48423 107.538 5.28268 106.846 5.72689C100.353 9.89475 96.1078 15.663 93.9553 23.0405C93.7228 23.8299 94.1819 24.6588 94.969 24.8889C95.762 25.1197 96.5908 24.6653 96.8174 23.8758Z" fill="var(--fill-0, #EF2752)"/>
</g>
<path id="Vector_4" fill-rule="evenodd" clip-rule="evenodd" d="M29.8279 14.8329C28.6711 16.1942 27.6336 17.661 26.7511 19.2226C26.3576 19.9178 25.6659 21.3953 25.5586 22.6624C25.4394 24.0123 25.8984 25.1512 27.079 25.751C28.6472 26.5464 29.8994 26.4636 30.8653 25.9824C31.7955 25.5203 32.5229 24.6122 32.982 23.3946C33.8585 21.0674 33.7273 17.5107 33.2682 15.4811C34.5025 14.2074 35.856 13.0525 37.3049 12.0257C48.0972 4.37867 63.928 7.19839 76.1096 18.6323C80.3728 22.6356 82.4239 31.0428 83.4912 40.1137C85.1548 54.2373 84.2067 70.012 84.0756 74.6336C84.0458 75.7749 84.1531 76.4522 84.2127 76.5875C84.4929 77.253 84.9878 77.4259 85.3337 77.4915C85.8345 77.5809 86.234 77.4855 86.556 77.3186C86.9912 77.0896 87.3491 76.6865 87.516 76.0646C87.6054 75.7212 87.6292 75.243 87.6173 74.7332C87.6054 74.3796 87.5338 73.9932 87.6054 73.7398C88.0705 72.1168 88.631 70.5319 89.1795 68.9357C91.01 63.57 93.3772 58.5417 96.0067 53.5194C104.36 37.5611 112.44 20.6995 126.136 8.54117C126.75 7.99559 126.81 7.05231 126.261 6.43697C125.718 5.82163 124.776 5.76557 124.156 6.31174C110.186 18.7104 101.886 35.8624 93.3653 52.1367C91.1293 56.4089 89.0781 60.6871 87.3728 65.162C87.5458 57.2461 87.4802 46.2886 86.0313 36.5934C84.7433 27.9709 82.2927 20.3507 78.1487 16.4589C64.8044 3.93326 47.3996 1.21612 35.5817 9.59357C34.3176 10.4903 33.1132 11.4766 31.9923 12.5463C25.8091 1.3813 12.5721 -3.09366 0.873432 2.24645C0.122144 2.5881 -0.205793 3.47296 0.134075 4.22127C0.479906 4.96957 1.36234 5.29991 2.11363 4.95826C12.6555 0.146439 24.6106 4.44069 29.8279 14.8329ZM30.6924 18.5708C30.2094 19.253 29.7622 19.9601 29.3448 20.6912C29.1242 21.0835 28.7426 21.8378 28.5816 22.5759C28.5458 22.7489 28.5399 23.0196 28.5399 23.1448C28.9513 23.3475 29.2733 23.4453 29.5356 23.3135C29.8636 23.1513 30.0306 22.7697 30.1916 22.3434C30.597 21.2737 30.7282 19.8558 30.6924 18.5708Z" fill="var(--fill-0, #EF2752)"/>
</g>
</svg>
