<svg preserveAspectRatio="none" width="100%" height="100%" overflow="visible" style="display: block;" viewBox="0 0 29.834 29.834" fill="none" xmlns="http://www.w3.org/2000/svg">
<g id="Group">
<g id="Vector" opacity="0.12">
</g>
<path id="Vector_2" fill-rule="evenodd" clip-rule="evenodd" d="M14.917 0C6.679 0 0 6.679 0 14.917C0 23.155 6.679 29.834 14.917 29.834C23.155 29.834 29.834 23.155 29.834 14.917C29.834 6.679 23.155 0 14.917 0ZM28.334 14.917C28.334 22.327 22.327 28.334 14.917 28.334C7.507 28.334 1.5 22.327 1.5 14.917C1.5 7.507 7.507 1.5 14.917 1.5C22.327 1.5 28.334 7.507 28.334 14.917ZM9.849 18.717C9.78991 18.6382 9.71587 18.5718 9.63112 18.5216C9.54637 18.4715 9.45257 18.4385 9.35507 18.4245C9.25756 18.4106 9.15827 18.416 9.06286 18.4405C8.96745 18.4649 8.87779 18.5079 8.799 18.567C8.72021 18.6261 8.65383 18.7001 8.60364 18.7849C8.55346 18.8696 8.52047 18.9634 8.50654 19.0609C8.49261 19.1584 8.49802 19.2577 8.52246 19.3531C8.54691 19.4485 8.58991 19.5382 8.649 19.617C9.37816 20.5908 10.3244 21.3811 11.4124 21.9251C12.5005 22.4691 13.7005 22.7519 14.917 22.751C16.1332 22.752 17.3328 22.4695 18.4207 21.9258C19.5086 21.3821 20.4547 20.5923 21.184 19.619C21.3035 19.4599 21.3549 19.2598 21.3268 19.0628C21.2988 18.8658 21.1936 18.688 21.0345 18.5685C20.8754 18.449 20.6753 18.3976 20.4783 18.4257C20.2813 18.4537 20.1035 18.5589 19.984 18.718C19.3945 19.505 18.6296 20.1437 17.7499 20.5832C16.8703 21.0228 15.9003 21.2511 14.917 21.25C13.9334 21.251 12.9632 21.0226 12.0834 20.5829C11.2036 20.1432 10.4385 19.5043 9.849 18.717ZM12.084 12.084C12.084 12.4598 11.9347 12.8202 11.669 13.086C11.4032 13.3517 11.0428 13.501 10.667 13.501C10.2912 13.501 9.93077 13.3517 9.66503 13.086C9.39929 12.8202 9.25 12.4598 9.25 12.084C9.25 11.7082 9.39929 11.3478 9.66503 11.082C9.93077 10.8163 10.2912 10.667 10.667 10.667C11.0428 10.667 11.4032 10.8163 11.669 11.082C11.9347 11.3478 12.084 11.7082 12.084 12.084ZM19.167 13.5C19.3562 13.505 19.5445 13.4721 19.7207 13.4032C19.897 13.3343 20.0576 13.2307 20.1932 13.0987C20.3288 12.9667 20.4366 12.8088 20.5101 12.6344C20.5837 12.4601 20.6216 12.2728 20.6216 12.0835C20.6216 11.8942 20.5837 11.7069 20.5101 11.5326C20.4366 11.3582 20.3288 11.2003 20.1932 11.0683C20.0576 10.9363 19.897 10.8327 19.7207 10.7638C19.5445 10.6949 19.3562 10.662 19.167 10.667C18.7978 10.6768 18.4471 10.8304 18.1894 11.0949C17.9318 11.3595 17.7876 11.7142 17.7876 12.0835C17.7876 12.4528 17.9318 12.8075 18.1894 13.0721C18.4471 13.3366 18.7978 13.4902 19.167 13.5Z" fill="var(--fill-0, #FCE7F3)"/>
</g>
</svg>
