<svg preserveAspectRatio="none" width="100%" height="100%" overflow="visible" style="display: block;" viewBox="0 0 30 30" fill="none" xmlns="http://www.w3.org/2000/svg">
<g id="discount label">
<g id="Vector">
</g>
<path id="Vector_2" fill-rule="evenodd" clip-rule="evenodd" d="M15.6971 22.1194C15.5924 22.3004 15.4234 22.4305 15.221 22.4844C15.019 22.5389 14.8076 22.5107 14.6263 22.4059C14.252 22.1903 14.1232 21.7098 14.3394 21.3354C14.444 21.1538 14.6132 21.0243 14.8153 20.9703C14.8829 20.9522 14.9514 20.9433 15.0194 20.9433C15.1552 20.9433 15.2893 20.9785 15.4101 21.0483C15.4101 21.0483 15.4101 21.0483 15.4102 21.0483C15.7844 21.2644 15.9131 21.7449 15.6971 22.1194ZM16.1132 19.8307C15.6066 19.5383 15.0164 19.4605 14.4513 19.6116C13.8862 19.7633 13.414 20.1255 13.1214 20.6323C12.5176 21.6782 12.8772 23.02 13.923 23.6241C14.2605 23.8187 14.6351 23.9182 15.0146 23.9182C15.2049 23.9182 15.3964 23.8937 15.585 23.8427C16.15 23.6915 16.6223 23.3295 16.9148 22.8226C17.2073 22.3158 17.285 21.7257 17.1335 21.1608C16.9823 20.5954 16.6199 20.1231 16.1132 19.8307ZM18.4077 15.7708C18.5775 16.12 18.4319 16.5406 18.0827 16.7106L10.0268 20.6258C9.92786 20.6739 9.82316 20.6967 9.71991 20.6967C9.45923 20.6967 9.2088 20.5514 9.0871 20.3006C8.9173 19.9514 9.06284 19.5308 9.41206 19.3614L17.468 15.4456C17.8171 15.2756 18.238 15.4215 18.4077 15.7708ZM11.7676 14.051C11.5515 14.4254 11.6803 14.9058 12.0545 15.1221C12.4288 15.3384 12.9092 15.2095 13.1254 14.835C13.2301 14.654 13.2578 14.4424 13.2037 14.2403C13.1494 14.0381 13.0197 13.8688 12.8384 13.7646C12.7153 13.693 12.5807 13.6596 12.4478 13.6596C12.1768 13.6596 11.9127 13.8002 11.7676 14.051ZM11.3514 16.3397C11.6955 16.5384 12.0715 16.6326 12.4427 16.6326C13.2002 16.6326 13.938 16.24 14.3431 15.5381C14.6356 15.0319 14.7134 14.4412 14.562 13.8765C14.4105 13.3115 14.0481 12.8387 13.5415 12.5464C12.4956 11.9428 11.1536 12.3026 10.5498 13.3479C9.94597 14.3937 10.3056 15.7361 11.3514 16.3397ZM19.8144 9.04067C18.993 9.04067 18.3247 8.37206 18.3247 7.55063C18.3247 6.72909 18.993 6.06112 19.8144 6.06112C20.6358 6.06112 21.3042 6.72903 21.3042 7.55063C21.3042 8.37206 20.6359 9.04067 19.8144 9.04067ZM19.8144 4.65487C18.2176 4.65487 16.9185 5.95389 16.9185 7.55063C16.9185 9.14725 18.2176 10.4469 19.8144 10.4469C21.4113 10.4469 22.7104 9.14725 22.7104 7.55063C22.7105 5.95395 21.4114 4.65487 19.8144 4.65487ZM26.1945 11.4524H26.1944C26.3542 11.1752 26.3871 10.9034 26.2979 10.597L24.2563 3.57387C24.0645 2.91411 23.6435 2.39315 23.0051 2.02471C22.5621 1.76848 22.1078 1.64034 21.6485 1.64034C21.4458 1.64034 21.242 1.66548 21.0376 1.71516L13.9349 3.45897C13.6245 3.5352 13.4055 3.69927 13.2457 3.97635L3.80148 20.3341C3.49872 20.8585 3.67907 21.5317 4.20349 21.8346L15.2501 28.2119C15.5031 28.3584 15.7989 28.3965 16.0831 28.3203C16.3673 28.2442 16.6043 28.0631 16.7502 27.8099L26.1945 11.4524ZM27.6481 10.2043L25.6067 3.18124C25.3144 2.17577 24.6578 1.35481 23.7082 0.806492C22.7585 0.258113 21.7191 0.100437 20.7024 0.350046L13.5996 2.09315C12.9207 2.25962 12.3773 2.66796 12.0278 3.27323L2.58355 19.631C1.89314 20.8267 2.30429 22.362 3.50025 23.0522L14.5469 29.4301C14.9317 29.6522 15.359 29.7653 15.7926 29.7653C16.0107 29.7653 16.2305 29.7366 16.4469 29.6786C17.0941 29.5057 17.6342 29.0915 17.968 28.5131L27.4123 12.1556C27.7618 11.5502 27.8433 10.8752 27.6481 10.2043Z" fill="var(--fill-0, #FCE7F3)"/>
</g>
</svg>
