<svg preserveAspectRatio="none" width="100%" height="100%" overflow="visible" style="display: block;" viewBox="0 0 532.202 458.859" fill="none" xmlns="http://www.w3.org/2000/svg">
<g id="svg1802121849_724">
<path id="Vector" d="M301.798 52.9578C332.014 14.1981 366.815 -0.471858 399.946 2.09704C433.108 4.66849 464.741 24.5202 488.555 55.0868C536.182 116.216 552.382 220.003 486.939 312.987C421.424 406.07 329.082 454.196 240.766 456.884C152.463 459.573 68.1297 416.843 18.5534 328.084C7.36804 308.059 2.22564 290.316 1.89568 274.409C1.56592 258.508 6.04367 244.4 14.1691 231.632C30.4423 206.062 61.3462 185.866 97.5813 167.568C115.686 158.424 135.092 149.768 154.628 141.156C174.158 132.546 193.821 123.98 212.413 115.023C249.575 97.1215 282.58 77.6112 301.798 52.9578Z" stroke="var(--stroke-0, #FCA5A5)" stroke-width="3.75734" stroke-dasharray="7.51 7.51"/>
</g>
</svg>
